<ttFont>
<head>
    <!-- Most of this table will be recalculated by the compiler -->
    <tableVersion value="1.0"/>
    <fontRevision value="2.0"/>
    <checkSumAdjustment value="0xcde18f89"/>
    <magicNumber value="0x5f0f3cf5"/>
    <flags value="00000000 00001011"/>
    <unitsPerEm value="3000"/>
    <created value="Thu Sep 19 16:17:04 2013"/>
    <modified value="Fri Mar 15 13:06:49 2024"/>
    <xMin value="-602"/>
    <yMin value="-862"/>
    <xMax value="1704"/>
    <yMax value="2756"/>
    <macStyle value="00000000 00000000"/>
    <lowestRecPPEM value="8"/>
    <fontDirectionHint value="2"/>
    <indexToLocFormat value="0"/>
    <glyphDataFormat value="0"/>
  </head>
          <CharString index="0">
            -835.80762 -73.12305 rlineto
            -36.64182 -3.20584 -18.3209 -18.57883 0 -33.9518 0 -2.9705 0.14024 -3.08817 0.28049 -3.20584 3.20525 -36.64246 18.57883 -18.32123 33.9524 0 2.97049 0 3.08818 0.14023 3.20584 0.28049 rrcurveto
            835.80762 73.12402 rlineto
            37.30164 3.26343 18.65083 18.65247 0 34.04152 0 2.92952 -0.13814 3.04349 -0.27625 3.15746 -3.20157 36.5929 -18.81352 18.29645 -34.42548 0 -3.06198 0 -3.18552 -0.14474 -3.309 -0.2895 rrcurveto
            return
          </CharString>
          <CharString index="1">
            -40 -20 -20 -40 hvcurveto
            0.00073 -0.16046 0.00037 -0.16016 0 -0.15985 -0.00073 -0.1728 -0.00037 -0.17317 0 -0.17355 rrcurveto
            -839 vlineto
            -40 20 -20 40 40 20 20 40 vhcurveto
            839 vlineto
            -0.00073 0.17355 -0.00037 0.17317 0 0.1728 0.00073 0.15985 0.00037 0.16016 0 0.16046 rrcurveto
            40 -20 20 -40 vhcurveto
            return
          </CharString>
          <CharString index="2">
            0 -4.84584 0.33333 -4.57188 0.66667 -4.29793 rrcurveto
            -366.28435 vlineto
            return
          </CharString>
          <CharString index="3">
            -40 20 -20 40 40 20 20 40 vhcurveto
            379 vlineto
            40.66667 -20 20.33333 -40 vhcurveto
            -0.17487 -0.00078 -0.17447 -0.00038 -0.1741 0 -0.15857 0.00078 -0.15884 0.00038 -0.15915 0 -40 0 -20 -20 0 -40 rrcurveto
            return
          </CharString>
          <CharString index="4">
            -40 -20 -20 -40 hvcurveto
            0.00073 -0.16046 0.00037 -0.16016 0 -0.15985 -0.00073 -0.1728 -0.00037 -0.17317 0 -0.17355 rrcurveto
            -1588 vlineto
            return
          </CharString>
          <CharString index="5">
            -40 20 -20 40 40 20 20 40 vhcurveto
            1588 vlineto
            -0.00073 0.17355 -0.00037 0.17317 0 0.1728 0.00073 0.15985 0.00037 0.16016 0 0.16046 rrcurveto
            40 -20 20 -40 vhcurveto
            return
          </CharString>
          <CharString index="6">
            18.24374 -9.77042 18.3489 -4.88521 18.4541 0 19.05127 0 19.16338 5.20648 19.27548 10.41298 51.44662 24.43512 25.72331 49.04233 0 73.6495 0 33.59993 -14.26677 30 -28.53352 26.40007 -28.53352 26.40007 -30.1333 13.20003 -31.73308 0 -31.73308 0 -30.1333 -12.93343 -28.53352 -25.86687 rrcurveto
            -28.53352 -25.86687 -14.26677 -30.13345 0 -34.40007 rrcurveto
            0 -74.60495 25.56453 -49.49675 51.12906 -24.3885 rrcurveto
            return
          </CharString>
          <CharString index="7">
            -40 -20 -20 -40 hvcurveto
            0 -363.13445 -87.97786 -238.67937 -175.95573 -114.22427 -3.73404 -2.43866 -3.73181 -2.17616 -3.72958 -1.91364 -29.2683 -13.06186 -9.20235 -25.03845 10.8636 -37.01505 1.5093 -5.14252 1.23885 -4.35017 0.9684 -3.55783 11.04764 -18.22214 16.30055 -9.11105 21.55347 0 10.9879 0 12.35309 2.36789 13.71829 4.73581 rrcurveto
            222.03949 128.17822 111 270.32063 -0.03949 412.46306 0.03906 6.66669 0.01953 6.66667 0 6.66664 rrcurveto
            40 -20 20 -40 vhcurveto
            return
          </CharString>
          <CharString index="8">
            434 vlineto
            137.33333 38 68.66667 76 65.33333 32.66667 -68.66667 -137.33333 vhcurveto
            0 -165.33333 -70.66667 -144.66667 -141.33333 -124 rrcurveto
            return
          </CharString>
          <CharString index="9">
            29.33333 50.66667 42.5 25.33333 55.66667 0 55.66667 0 41.16666 -21.33333 26.66667 -42.66667 26.66667 -42.66667 14 -46.66666 1.33333 -50.66667 0.05498 -2.08934 0.0275 -2.0868 0 -2.08424 0 -48.45871 -14.86082 -47.07986 -29.72165 -45.70103 -31 -47.66667 -41 -24 -51 -0.33333 rrcurveto
            -0.36691 -0.0024 -0.36638 -0.0012 -0.36584 0 -50.48787 0 -40.46695 22.83453 -30.44604 45.66907 -29.66257 44.49385 -14.83128 45.92722 0 47.36058 0 45.73607 13.83128 47.07278 27.66257 48.4095 rrcurveto
            return
          </CharString>
          <CharString index="10">
            -48 -43.33333 -24 -59.25679 0 -75.18022 0 -75.18024 31.71857 -64.24864 63.43713 -53.31708 36.10379 -30.34421 42.772 -15.14496 49.44019 0.05429 29.68555 -0.03255 25.7741 5.26302 21.86263 10.5586 59.8877 29.14864 41.73535 40.7207 23.58301 52.29277 15.33333 34 7.79037 33.66667 0.24739 33.33333 rrcurveto
            -0.51736 72.49716 -31.45703 65 -62.3967 57.50284 -34 31.33333 -43.66667 15.66667 -53.33333 0 -53.33333 0 -50.66667 -21.66667 -48 -43.33333 rrcurveto
            return
          </CharString>
          <CharString index="11">
            -21 23 -10.5 23.66667 0 24.33333 0 24.33333 10.66667 26.33334 21.33333 28.33333 21.33333 28.33333 27 14.16667 32.66667 0 32.66667 0 25.33333 -15.16667 18 -30.33333 18 -30.33333 9 -26.83334 0 -23.33333 0 -23.33333 -9.16667 -22.66667 -18.33333 -22 rrcurveto
            -18.33333 -22 -25.5 -11 -32.66667 0 -32.66667 0 -26.83333 11.5 -21 23 rrcurveto
            return
          </CharString>
          <CharString index="12">
            0 -206 -98 -383 154 0 196 383 0 206 rlineto
            return
          </CharString>
          <CharString index="13">
            0 -206 -98 -383 153 0 197 383 0 206 rlineto
            return
          </CharString>
          <CharString index="14">
            0.83008 58.59375 0.41504 58.34961 0 58.10547 0 58.10547 -0.41504 57.86133 -0.83008 57.61719 -0.39062 44.04297 12.59766 22.02148 25.58594 0 31.64062 0 15.82031 -22.02148 0 -44.04297 -0.39062 -93.16406 -28.41797 -116.21094 -56.44531 -139.25781 rrcurveto
            return
          </CharString>
          <CharString index="15">
            -40 20 -20 40 40 20 20 40 40 -20 20 -40 -40 -20 -20 -40 vhcurveto
            return
          </CharString>
          <CharString index="16">
            -40 0 20 -20 0 40 rlineto
            return
          </CharString>
          <CharString index="17">
            -3.48633 39.84766 -18.18066 -21.66699 39.84766 3.48633 rlineto
            return
          </CharString>
        <CharString name=".notdef">
          1065 0 150 1033 150 hstem
          150 150 900 150 vstem
          300 150 rmoveto
          1033 900 -1033 vlineto
          -1050 -150 rmoveto
          1200 1333 -1200 hlineto
          endchar
        </CharString>
        <CharString name=".null">
          -435 endchar
        </CharString>
        <CharString name="OstrI">
          -85 285 hstem
          0 120 vstem
          140 vmoveto
          0 -110 21.72578 -20.82054 98.27422 -94.17946 0 225 rlineto
          40 -20 20 -40 -40 -20 -20 -40 vhcurveto
          endchar
        </CharString>
        <CharString name="b">
          30 21 -21 21 -21 1213.5 120.503 hstemhm
          1 120 214.54373 130.26183 hintmask 00111000
          1 60 rmoveto
          120 743 rmoveto
          204 vlineto
          0 137.33333 29.32878 68.83334 58.65755 0.33333 0.30106 0.00069 0.3005 0.00035 0.29997 0 83.77058 0 41.88528 -26.799 0 -53.59798 0 -39.29611 -22.51457 -53.70135 -45.02916 -68.1066 -41.33333 -61.33333 -49 -56.33334 -56.66667 -51.33333 rrcurveto
          -120 -176.71565 rmoveto
          -566.28435 vlineto
          hintmask 10111000
          -40 20 -20 40 40 20 20 40 vhcurveto
          579 vlineto
          -0.00073 0.17355 -0.00037 0.17317 0 0.1728 0.00073 0.15985 0.00037 0.16016 0 0.16046 rrcurveto
          0 3.88878 0 19.11122 rlineto
          87.33333 74 76 83 64.66667 92 77.87038 113.0463 38.93518 90.3341 0 67.62192 0 100.26697 -85.60185 50.33257 -171.2037 0.39815 -0.41641 0.002 -0.4158 0.001 -0.41516 0 rrcurveto
          -137.83508 -68.91754 -110.33434 -220.66867 hvcurveto
          -349.75 vlineto
          -1.41586 -8.84917 0 -8.98856 1.41586 -9.12793 rrcurveto
          endchar
        </CharString>
        <CharString name="c">
          -415 endchar
        </CharString>
        <CharString name="c_i">
          107 0 120 479 -21 78.03873 123.46243 hstem
          419.54694 122.45306 vstem
          60 578 rmoveto
          17.39482 0 13.62198 4.05241 9.84914 8.10481 rrcurveto
          0.13406 -0.15723 rlineto
          0.3289 0.37202 0.85976 0.81808 1.39061 1.26411 1.39062 1.26413 1.70715 1.98845 2.02367 2.71277 36.38982 38.41277 35.12555 19.20639 33.86131 0 1.62903 0 1.62611 -0.04445 1.6232 -0.08891 35.36284 -1.9369 42.51476 -20.13513 49.66667 -38.33333 26.34114 -19.81836 20.66862 -37.03792 14.9961 -54.25749 rrcurveto
          7.36072 -26.63187 3.68036 -26.78825 0 -26.94463 0 -27.95006 -3.96014 -28.11833 -7.92029 -28.28659 -15.55566 -55.55566 -20.5 -40.5 -25.44434 -25.44434 -25.44434 -25.44434 -22.72217 -18.88884 -20 -12.33333 -20 -12.33333 -29.33333 -7.16667 -38.66667 -2 rrcurveto
          -40 -20 -20 -40 -40 20 -20 40 hvcurveto
          0.0443 0.00005 0.04427 0.00003 0.04425 0 1.87704 -0.05614 1.89426 -0.02808 1.91148 0 43.48444 0 52.3948 14.52805 61.30516 29.05609 64 30.33333 51.33333 61.5 38.66667 92.66667 23.33333 56 11.66667 58.33333 0 60.66667 0 97.33333 -33.83333 87.16667 -67.66667 77 rrcurveto
          -67.37567 76.66887 -74.3358 38.33444 -81.2959 0 -0.35112 0 -0.35124 -0.00072 -0.35138 -0.00143 -81.7074 -0.33257 -65.07768 -30.98592 -48.44797 -61.63925 -14.13722 -10.72551 -7.06862 -16.18114 0 -21.63678 0 -40 20 -20 40 0 rrcurveto
          endchar
        </CharString>
        <CharString name="dolCZbrzh">
          33 146 120.49896 hstem
          -345.03017 130.26183 214.54373 120 vstem
          -0.22461 677 rmoveto
          -204 vlineto
          0 -137.33333 -29.32878 -68.83334 -58.65755 -0.33333 -0.30106 -0.00069 -0.3005 -0.00035 -0.29997 0 -83.77058 0 -41.88528 26.799 0 53.59798 0 39.29611 22.51457 53.70135 45.02916 68.1066 41.33333 61.33333 49 56.33334 56.66667 51.33333 rrcurveto
          140 vmoveto
          -87.33333 -74 -76 -83 -64.66667 -92 -77.87038 -113.0463 -38.93518 -90.3341 0 -67.62192 0 -100.26697 85.60185 -50.33257 171.2037 -0.39815 0.41641 -0.002 0.4158 -0.001 0.41516 0 rrcurveto
          137.83508 68.91754 110.33434 220.66867 hvcurveto
          367 vlineto
          37.33333 -20 18.66667 -40 vhcurveto
          -40 0 -19.99707 -18.66667 0.00586 -37.33333 -0.0154 -1.7514 -0.00531 -2.33508 0.00476 -2.91876 0.00478 -2.91876 0.00238 -6.66492 0 -10.41107 rrcurveto
          endchar
        </CharString>
        <CharString name="dolDRZ.brzh">
          146 -102.56934 141.84473 hstem
          -280.4431 107.3308 173.51855 119.59375 vstem
          -173.1123 -225.13379 rmoveto
          0 33.05144 20.8864 29.83789 41.77278 26.62434 rrcurveto
          110.85938 33.05078 0 -112.23535 rlineto
          -0.27083 -38.1302 -5.83464 -27.92612 -11.39844 -17.722 -11.39844 -17.722 -20.9336 -5.50146 -30.46875 6.71907 -62.14258 13.7039 -31.07129 29.98453 0 46.26518 rrcurveto
          173.1123 285.13379 rmoveto
          0 -3.08864 0.13542 -2.97733 0.27083 -2.86604 rrcurveto
          -11.7926 vlineto
          -25.60417 -12.1836 -27.91931 -13.5507 -30.23448 -14.91782 -30.23447 -14.91782 -22.57547 -11.1228 -14.91647 -7.32777 -42.34378 -28.31415 -32.40625 -26.95435 -22.46873 -25.59456 -21.4308 -24.41222 -10.71541 -35.87355 0 -47.33488 0 -2.29253 0.02515 -2.31941 0.05026 -2.34628 1.08821 -50.79137 18 -44 34.91179 -37.20863 rrcurveto
          34.91179 -37.20863 47.59001 -18.58154 60.26823 0.04558 89.73177 -0.04558 58.98698 30.75554 28.24219 61.55664 17.75781 37.92365 8.8789 75.88835 0 113.85304 rrcurveto
          158 vlineto
          40 -20 20 -40 -40 -20 -20 -40 vhcurveto
          endchar
        </CharString>
        <CharString name="dolDv.brzhd">
          -41 -339 120 529 132 hstem
          -0.75 119.08559 147.16441 126.50128 vstem
          120 60 rmoveto
          0 1.46269 -0.03275 1.43813 -0.06549 1.41357 6.081 163.7904 25.78662 81.8952 45.49225 0 rrcurveto
          45.49225 22.74612 -88.16667 -176.33333 -176.33333 -22.83333 -88.16667 -45.66667 -52.33333 -26.16667 67.33333 134.66667 hvcurveto
          -58.5 460 rmoveto
          -40 -20 -20 -40 hvcurveto
          0 -1.58116 -0.25 -3.24692 -0.5 -4.91267 -0.5 -4.91267 -0.25 -24.1047 0 -43.29675 0 -43.29674 -0.16667 -106.31505 -0.33333 -169.33333 0.33333 -214 65.66667 -107 131 0 rrcurveto
          131.33418 65.6671 130.83163 261.66325 259.0034 -64.83376 129.50171 -129.66753 hvcurveto
          -52.06793 0 -26.49283 -38.4441 -0.91772 -76.88823 rrcurveto
          0.31407 38.94511 rlineto
          1.10959 5.33977 0.55481 5.79575 0 6.25172 rrcurveto
          40 -20 20 -40 vhcurveto
          endchar
        </CharString>
        <CharString name="dolETW">
          -100 20.08398 120.50293 hstem
          0 121.18652 vstem
          180 vmoveto
          -10.34961 vlineto
          0 -99.84933 56.54102 -49.85547 113.08203 0.1384 rrcurveto
          8.11781 hlineto
          1.39366 -0.05598 1.41971 -0.028 1.44579 0 rrcurveto
          40 20 20 40 40 -20 20 -40 hvcurveto
          -0.10168 -0.00032 -0.10156 -0.00015 -0.10144 0 rrcurveto
          0.58739 -16.18652 vlineto
          -12.33919 -1.05794 -10.50293 2.30435 -8.66667 5.66667 -8.66667 5.66667 -4.27115 7.38345 0.12434 9.10027 rrcurveto
          -1 10.34961 -0.18652 0 rlineto
          40 -20 20 -40 -40 -20 -20 -40 vhcurveto
          endchar
        </CharString>
        <CharString name="dolLUK">
          82 -140.00603 120.00603 hstem
          0 120 vstem
          0.00514 60.99995 rmoveto
          -0.00514 -0.99995 0 -36 rlineto
          -109.33736 77.3924 -54.66867 154.7848 vhcurveto
          0.9381 0 0.94093 0.00201 0.94377 0.00401 88.66667 0 70 44.66667 51.33333 89.33333 rrcurveto
          -0.5593 0.29224 rlineto
          3.70619 8.37958 1.8531 9.90259 0 11.4256 0 40 -20 20 -40 0 -27.6122 0 -18.34222 -10.8362 -9.07222 -21.6724 rrcurveto
          -0.97336 0.50859 rlineto
          -24 -48 -32.66667 -24 -41.33333 0 rrcurveto
          -77.33333 -38.66667 14.66667 29.33333 hvcurveto
          36 vlineto
          40 -19.89764 20 -39.79527 vhcurveto
          -39.79529 0 -20.10065 -19.66669 -0.406 -39.33336 rrcurveto
          endchar
        </CharString>
        <CharString name="dolMK30">
          -1 -166 304.47125 hstem
          0 120.46875 vstem
          120.46875 59 rmoveto
          0 9.40698 0 9.59302 rlineto
          40.31725 -20.93872 20.15862 -41.87744 vhcurveto
          -0.36566 0 -0.36723 -0.00153 -0.36885 -0.00308 -37.70056 -0.31416 -18.85028 -20.49042 0 -40.66667 rrcurveto
          0 -243 119.46875 202 rlineto
          endchar
        </CharString>
        <CharString name="dolMK45">
          231 -80 220 -140 120 -100 120 hstemhm
          0 119.46875 -119 120 -119.99995 120 hintmask 00110000
          119.46875 28 rmoveto
          0.35417 17.33333 0.17708 17.66667 0 18 rrcurveto
          39.33333 -20 19.66667 -40 -40 -20 -19.66667 -39.33333 vhcurveto
          hintmask 10010000
          -161 vlineto
          hintmask 01000100
          0.46875 140 rmoveto
          -92 callsubr
          hintmask 00101000
          20 vmoveto
          -92 callsubr
          endchar
        </CharString>
        <CharString name="dolMKE">
          -10 210 hstem
          0 120 vstem
          140 vmoveto
          0 -150 120 17 0 133 rlineto
          40 -20 20 -40 -40 -20 -20 -40 vhcurveto
          endchar
        </CharString>
        <CharString name="dolMOluk">
          345 -247.99985 130.00755 hstem
          0 120 543.91092 116.08908 vstem
          0.00514 61.0146 rmoveto
          -0.00514 -0.99995 0 -36 rlineto
          -181.343 132.72205 -90.6715 265.44409 vhcurveto
          1.93755 0 1.94463 0.00484 1.95169 0.00966 156.896 0.65646 122.31216 78.22765 87.72836 155.79883 0.91951 1.46437 0.78119 1.35565 0.64284 1.24696 0.64285 1.24695 0.57332 1.08336 0.50377 0.91977 rrcurveto
          -0.20575 0.10948 rlineto
          3.4705 8.204 1.73524 9.63017 0 11.05634 0 40 -20 20 -40 0 -28.96945 0 -18.69637 -11.7489 -8.42326 -23.49782 -54.78276 -109.84395 -86.30363 -55.2511 -117.82452 -0.65823 -1.31944 -0.00462 -1.31487 -0.00232 -1.31029 0 rrcurveto
          -187.37027 -93.68513 47.33565 94.6713 hvcurveto
          36 vlineto
          40 -19.89764 20 -39.79527 vhcurveto
          -39.79529 0 -20.10065 -19.66669 -0.406 -39.33336 rrcurveto
          endchar
        </CharString>
        <CharString name="dolMv.brzhd">
          -76 -227 120 248.61607 109.14272 hstem
          -4 120 124 115 vstem
          55.46875 387.01953 rmoveto
          -40 -20 -20 -40 hvcurveto
          0 -3.53198 0.17708 -3.38644 0.35417 -3.2409 rrcurveto
          -178.8602 vlineto
          -243.33333 59.83333 -121.66667 119.66667 119.66667 59.83333 79.66667 159.33333 vhcurveto
          0 159.33333 -59 79.58627 -118 -0.16081 -41.33333 0.16081 -20.66667 -16.58627 0 -33.33333 rrcurveto
          126 -0.53125 vlineto
          40.01302 -20 20.00652 -40 vhcurveto
          60.53125 -422.01953 rmoveto
          0.66522 117.74405 20.57855 58.87202 40.49188 0 rrcurveto
          41.50957 20.75478 -41.50127 -83.0025 -82.74153 -20.66667 -41.37077 -41.33333 -41.33333 -20.66667 24 48 hvcurveto
          endchar
        </CharString>
        <CharString name="dolSZ.brzh">
          46 -862 119 hstem
          -338.99562 127.00441 212 120 vstem
          0.00879 -103 rmoveto
          -434 vlineto
          -137.33333 -38 -68.66667 -76 -65.33333 -32.66667 68.66667 137.33333 vhcurveto
          0 165.33333 70.66667 144.66667 141.33333 124 rrcurveto
          140 vmoveto
          -226.00294 -209.9554 -113.00146 -192.61821 0 -175.281 rrcurveto
          -214.09692 74.8348 -107.04846 149.66962 156.33333 78.16667 108.33333 216.66667 vhcurveto
          601 vlineto
          38 -20 19 -40 -40 -20 -19 -38 vhcurveto
          endchar
        </CharString>
        <CharString name="dolTW">
          -198 -13.80762 154.24323 hstem
          -0.82016 265.88936 vstem
          96 vmoveto
          -1 vlineto
          0 -2.97148 -0.27339 -6.6715 -0.54677 -10.37152 -0.54677 -10.37152 3.60876 -10.91583 7.7643 -11.46013 17.00081 -37.45587 38.66463 -18.68188 60.32843 0.09212 0.52841 -0.00159 0.52692 -0.0008 0.52539 0 91.659 0 45.82948 24.17114 0 48.34227 0 42.91704 -16.25165 20.56996 -32.50333 -1.7771 rrcurveto
          -5.27516 -0.2884 -7.2384 -0.01437 -9.20163 0.2597 -9.20163 0.25969 -8.0427 -2.97443 -6.88377 -6.20857 -24.03566 -14.62448 -21.80838 3.96172 -19.5811 22.54794 -10.15422 11.69273 -10.76355 5.70117 -11.37283 -0.2904 -11.37285 -0.2904 -10.63574 -0.1452 -9.89864 0 -9.89864 0 -6.6194 -2.58844 -3.34015 -5.1769 rrcurveto
          -3.34015 -5.1769 -3.13846 -4.2173 -2.93678 -3.25774 -2.93678 -3.25772 -2.42542 -4.17407 -1.91406 -5.09042 -1.91406 -5.09041 -1.43271 -3.68684 -0.95135 -2.28326 rrcurveto
          endchar
        </CharString>
        <CharString name="dolTW.alt">
          88 -52.80762 173.8819 hstem
          -119 120 0.55919 119.44081 vstem
          -119 120 rmoveto
          0 -0.3143 0.0014 -0.31316 0.0028 -0.312 -0.0028 -0.35196 -0.0014 -0.35352 0 -0.35507 0 -114 39.66667 -56.93587 79.33333 0.12825 80 -0.12825 40.33333 37.93587 0.66667 76 0 40.04951 -18.31342 20.02477 -36.62682 0 -8.33185 0 -9.2795 -1.03622 -10.22717 -2.07243 rrcurveto
          -19.8525 -4.0229 -12.22069 -13.402 -4.58888 -22.78107 -0.81888 -4.06529 -1.88077 -4.97528 -2.94264 -5.88528 -2.94264 -5.88528 1.69437 15.72208 6.33138 37.3294 rrcurveto
          -0.24754 2.9705 rlineto
          0.16501 2.27536 0.08252 2.34317 0 2.41098 rrcurveto
          40 -20 20 -40 -40 -20 -20 -40 vhcurveto
          endchar
        </CharString>
        <CharString name="e">
          522 2.6369 193.52196 hstem
          0.00017 957.18178 vstem
          54.96289 122.60156 rmoveto
          835.80762 73.12305 rmoveto
          -107 callsubr
          endchar
        </CharString>
        <CharString name="endash">
          1211 420 172 106 170 hstem
          69 868 rmoveto
          -170 1480 170 vlineto
          -1480 -276 rmoveto
          -172 1480 172 vlineto
          endchar
        </CharString>
        <CharString name="eprost0">
          1268 21.02556 -21 21 -21 138.82405 119.54297 hstemhm
          hintmask 00100000
          54.96289 119.98926 rmoveto
          1591.4858 138.83755 rmoveto
          -2.74922 0.02486 -3.17593 -0.14474 -3.60262 -0.31435 rrcurveto
          -1581.95801 -138.40332 rlineto
          -36.64182 -3.20584 -18.3209 -18.57883 0 -33.9518 0 -2.9705 0.14024 -3.08817 0.28049 -3.20584 rrcurveto
          hintmask 10100000
          3.20584 -36.64182 18.57883 -18.3209 33.9518 0 2.9705 0 3.08817 0.14024 3.20584 0.28049 rrcurveto
          1581.95801 138.40332 rlineto
          37.42236 3.274 18.71118 18.07065 0 32.86731 0 2.71332 -0.12752 2.81416 -0.25504 2.915 -3.34439 38.22536 -18.89406 19.1076 -34.44374 -0.0102 rrcurveto
          endchar
        </CharString>
        <CharString name="eprost1">
          869 -0.5428 226.21016 hstem
          54.96289 119.4209 rmoveto
          1170.80975 102.43256 rmoveto
          -1170.80975 -102.43256 rlineto
          -36.64182 -3.20525 -18.3209 -18.57878 0 -33.9523 0 -2.97054 0.14024 -3.08821 0.28049 -3.2059 3.20525 -36.64182 18.57878 -18.3209 33.9523 0 2.97054 0 3.08821 0.14024 3.2059 0.28049 rrcurveto
          1183.47949 103.54102 rlineto
          37.02661 3.23936 18.5133 19.98929 0 36.7392 0 3.45805 -0.16402 3.60646 -0.32803 3.75484 -2.99721 34.30748 -16.74113 17.15373 -30.48508 0 -8.29913 0 -9.31772 -1.2713 -10.33632 -2.5426 rrcurveto
          endchar
        </CharString>
        <CharString name="eprost2">
          512 2.6369 193.52196 hstem
          0.00017 957.18178 vstem
          54.96289 122.60156 rmoveto
          835.80762 73.12305 rmoveto
          -107 callsubr
          endchar
        </CharString>
        <CharString name="eprost3">
          263 0.53142 173.12613 hstem
          0.00017 697.73038 vstem
          54.96289 120.49512 rmoveto
          564.12727 49.35445 rmoveto
          -564.12727 -49.35445 rlineto
          -36.64182 -3.20584 -18.3209 -18.57883 0 -33.9518 0 -2.9705 0.14024 -3.08817 0.28049 -3.20584 3.20584 -36.64182 18.57883 -18.3209 33.9518 0 2.9705 0 3.08817 0.14024 3.20584 0.28049 rrcurveto
          576.79688 50.46289 rlineto
          37.00787 3.23773 18.50392 19.9684 0 36.69905 0 3.47462 -0.16586 3.62459 -0.33174 3.77457 -3.01537 34.30904 -16.74316 17.15451 -30.471 0 -8.28865 0 -9.30441 -1.26933 -10.32019 -2.53865 rrcurveto
          endchar
        </CharString>
        <CharString name="eprost4">
          63 0.24724 155.70139 hstem
          -0.00066 498.52005 vstem
          54.96289 120.21094 rmoveto
          364.88783 31.92375 rmoveto
          -364.88783 -31.92375 rlineto
          -36.64236 -3.20529 -18.32118 -18.57928 0 -33.95328 0 -2.97008 0.1402 -3.08769 0.28038 -3.20535 3.20584 -36.64182 18.57883 -18.3209 33.9518 0 2.9705 0 3.08817 0.14024 3.20584 0.28049 rrcurveto
          377.5586 33.03223 rlineto
          37.02661 3.23936 18.5133 19.98929 0 36.73921 0 3.45805 -0.16402 3.60646 -0.32803 3.75485 -2.99721 34.30746 -16.74113 17.15373 -30.48505 0 -8.29915 0 -9.31775 -1.27132 -10.33635 -2.54262 rrcurveto
          endchar
        </CharString>
        <CharString name="eprost5">
          -136 -1.0628 121.48265 hstem
          0.03383 341.2541 vstem
          55.13672 118.89551 rmoveto
          230.61816 -100.28223 rmoveto
          37.02203 3.23897 18.51102 19.98415 0 36.72932 0 3.4621 -0.16446 3.61087 -0.32895 3.75964 -3.00163 34.3079 -16.7417 17.15396 -30.48175 0 -8.29648 0 -9.31433 -1.27078 -10.33221 -2.54156 rrcurveto
          -194.2903 -16.99759 rlineto
          -3.44577 0.24638 -3.31538 0.1232 -3.185 0 -38.9041 0 -19.45204 -18.38072 0 -36.76147 0 -3.31305 0.158 -3.46234 0.31598 -3.61163 3.26361 -37.30229 18.65254 -18.65114 34.04147 0 2.92946 0 3.04343 0.13812 3.15738 0.27625 rrcurveto
          endchar
        </CharString>
        <CharString name="eprost6">
          -235 0.2907 121.48163 hstem
          -0.0537 239.64302 vstem
          55.0498 120.24805 rmoveto
          126.42871 -68.24023 rmoveto
          -90 callsubr
          -137.72363 -32.12598 rmoveto
          -90 callsubr
          103.93945 -52.13965 rmoveto
          37.02245 3.239 18.51122 19.98401 0 36.729 0 3.46162 -0.16443 3.61035 -0.32884 3.7591 -3.00142 34.30876 -16.74275 17.15437 -30.48409 0 -8.29497 0 -9.31242 -1.27016 -10.32985 -2.54031 rrcurveto
          -92.68163 -8.10902 rlineto
          -3.44504 0.24628 -3.31473 0.12315 -3.18439 0 -38.90564 0 -19.45284 -18.38196 0 -36.7639 0 -3.31192 0.15788 -3.4611 0.31573 -3.61028 3.26357 -37.30165 18.65273 -18.65082 34.0419 0 2.92958 0 3.04356 0.13812 3.15753 0.27626 rrcurveto
          endchar
        </CharString>
        <CharString name="g">
          0 960 hstem
          0 120 vstem
          60 vmoveto
          60 900 rmoveto
          -106 callsubr
          endchar
        </CharString>
        <CharString name="g_l">
          -80 0 960 hstem
          70 120 vstem
          150 392 rmoveto
          -91 callsubr
          20 -351 rmoveto
          -91 callsubr
          -60 -21 rmoveto
          169.66112 160.14627 rmoveto
          -2.09523 -34.64331 -16.55371 -27.34114 -31.01216 -20.03897 rrcurveto
          40.32443 vlineto
          21.8015 10.81337 16.55371 13.89966 11.30591 16.98598 rrcurveto
          -109.66112 739.85373 rmoveto
          -40 -20 -20 -40 hvcurveto
          0.00073 -0.16046 0.00037 -0.16016 0 -0.15985 -0.00073 -0.1728 -0.00037 -0.17317 0 -0.17355 rrcurveto
          -462.29926 vlineto
          -46.66667 -28.10654 -23.33333 -42.68001 0 -57.25351 0 -57.25351 23.33333 -42.58539 46.66667 -27.91725 rrcurveto
          -120.90454 vlineto
          -40 20 -20 40 vhcurveto
          61.99648 0 54.41043 23.41125 46.82437 46.82251 41.84581 41.84416 20.92291 52.42207 0 63 0 63 -18.228 49.58359 -36.456 36.16716 -36.45601 36.16716 -37.10533 22.92715 -37.75467 9.68713 rrcurveto
          453.9678 vlineto
          -0.00073 0.17355 -0.00037 0.17317 0 0.1728 0.00073 0.15985 0.00037 0.16016 0 0.16046 rrcurveto
          40 -20 20 -40 vhcurveto
          endchar
        </CharString>
        <CharString name="gorBbrzh">
          33 21 -21 21 -21 633.5 120.503 hstemhm
          0 120 214.54373 130.26183 hintmask 00111000
          120 223 rmoveto
          204 vlineto
          0 137.33333 29.32878 68.83334 58.65755 0.33333 0.30106 0.00069 0.3005 0.00035 0.29997 0 83.77058 0 41.88528 -26.799 0 -53.59798 0 -39.29611 -22.51457 -53.70135 -45.02916 -68.1066 rrcurveto
          -41.33333 -61.33333 -49 -56.33334 -56.66667 -51.33333 rrcurveto
          -140 vmoveto
          87.33333 74 76 83 64.66667 92 77.87038 113.0463 38.93518 90.3341 0 67.62192 0 100.26697 -85.60185 50.33257 -171.2037 0.39815 -0.41641 0.002 -0.4158 0.001 -0.41516 0 rrcurveto
          -137.83508 -68.91754 -110.33434 -220.66867 hvcurveto
          -367 vlineto
          hintmask 10111000
          -37.33333 20 -18.66667 40 vhcurveto
          40 0 19.99707 18.66667 -0.00586 37.33333 0.0154 1.7514 0.00531 2.33508 -0.00476 2.91876 -0.00478 2.91876 -0.00238 6.66492 0 10.41107 rrcurveto
          endchar
        </CharString>
        <CharString name="gorLUK">
          15 104.99414 120.00603 hstem
          330 120 vstem
          115.02664 33.50273 rmoveto
          0.97336 -0.50859 rlineto
          24 48 32.66667 24 41.33333 0 rrcurveto
          77.33333 38.66667 -14.66667 -29.33333 hvcurveto
          -36 vlineto
          -40 19.89764 -20 39.79527 vhcurveto
          39.79529 0 20.10065 19.66669 0.406 39.33336 rrcurveto
          0.00514 0.99995 0 36 rlineto
          109.33736 -77.3924 54.66867 -154.7848 vhcurveto
          -0.9381 0 -0.94093 -0.00201 -0.94377 -0.00401 -88.66667 0 -70 -44.66667 -51.33333 -89.33333 rrcurveto
          0.5593 -0.29224 rlineto
          -3.70619 -8.37958 -1.8531 -9.90259 0 -11.4256 0 -40 20 -20 40 0 27.6122 0 18.34222 10.8362 9.07222 21.6724 rrcurveto
          endchar
        </CharString>
        <CharString name="gorMK45">
          0 220 hstem
          1.4932 119.97556 vstem
          1 60 rmoveto
          -40 20 -20 40 vhcurveto
          0.07452 0.00017 0.07446 0.00008 0.0744 0 0.08171 -0.00017 0.08179 -0.00008 0.08186 0 rrcurveto
          40 20 19.66667 39.33333 hvcurveto
          0 161 -119.46875 -108 rlineto
          -0.13997 -6.85034 -0.30591 -6.90434 -0.47185 -6.95833 -0.47185 -6.95833 0.13698 -6.91634 0.74579 -6.87434 rrcurveto
          endchar
        </CharString>
        <CharString name="gorMKE">
          13 0 193 hstem
          0 120 vstem
          120 60 rmoveto
          0 150 -120 -17 0 -133 rlineto
          -40 20 -20 40 40 20 20 40 vhcurveto
          endchar
        </CharString>
        <CharString name="gorOMluk">
          345 21 -21 21 -21 201.00694 130.00755 hstemhm
          0 116.08908 543.91092 120 hintmask 10111000
          779.99486 22.00005 rmoveto
          0.00514 0.99995 0 36 rlineto
          181.343 -132.72205 90.6715 -265.44409 vhcurveto
          -1.93755 0 -1.94463 -0.00484 -1.95169 -0.00966 -156.896 -0.65646 -122.31216 -78.22765 -87.72836 -155.79883 -0.91951 -1.46437 -0.78119 -1.35565 -0.64284 -1.24696 -0.64285 -1.24695 -0.57332 -1.08336 -0.50377 -0.91977 rrcurveto
          0.20575 -0.10948 rlineto
          -3.4705 -8.204 -1.73524 -9.63017 0 -11.05634 0 -40 20 -20 40 0 28.96945 0 18.69637 11.7489 8.42326 23.49782 54.78276 109.84395 86.30363 55.2511 117.82452 0.65823 1.31944 0.00462 1.31487 0.00232 1.31029 0 rrcurveto
          187.37027 93.68513 -47.33565 -94.6713 hvcurveto
          -36 vlineto
          -40 19.89764 -20 39.79527 vhcurveto
          39.79529 0 20.10065 19.66669 0.406 39.33336 rrcurveto
          endchar
        </CharString>
        <CharString name="gorP.brzh">
          26 800 -21 864 119 hstem
          0 120 212 127.00441 vstem
          120 1003 rmoveto
          -99 callsubr
          -60 -224 rmoveto
          40 20 19 38 hvcurveto
          27 vlineto
          226.00294 209.9554 113.00146 192.61821 0 175.281 rrcurveto
          214.09692 -74.8348 107.04846 -149.66962 -156.33333 -78.16667 -108.33333 -216.66667 vhcurveto
          -601 vlineto
          -38 20 -19 40 vhcurveto
          endchar
        </CharString>
        <CharString name="gorPS.brzh">
          165 21 -21 21 -21 988 133 hstemhm
          0 120 336.00595 127.9962 hintmask 00111000
          120 225 rmoveto
          1.33333 172.66667 1 193.66666 0.66667 214.66667 rrcurveto
          121.33333 55.66667 60.66667 111.33333 110.67064 55.33531 -59.9466 -119.89319 vhcurveto
          0 -266.71144 -112.00198 -194.38673 -224.00397 -122.06204 rrcurveto
          -143 vmoveto
          309.33476 155 154.66739 240.9632 0 326.9264 rrcurveto
          210.74026 -97.50072 105.37013 -195.00143 -194.33333 -97.16667 -105 -210 vhcurveto
          -751 vlineto
          hintmask 10111000
          -36.66667 20 -18.33333 40 40 20 18.33333 36.66667 vhcurveto
          endchar
        </CharString>
        <CharString name="gorST.brzh">
          93 661.17465 115.25485 hstemhm
          -40.98764 119.44873 -19.97379 124.54793 200.04906 130.01639 hintmask 11010000
          99.07422 124.66504 rmoveto
          -13.7421 67.76826 -6.87103 62.62558 0 57.48288 0 97.9818 19.96349 83.03996 39.92699 68.0981 38.89737 66.34203 42.76266 33.171 46.62796 0 29.31352 0 30.84117 -13.10997 32.36884 -26.21996 15.94746 -12.98227 7.97374 -22.49147 0 -32.00066 0 -38.66772 -11.64235 -52.55199 -23.28471 -66.43626 rrcurveto
          -42.55469 -121.41765 -83.02766 -90.6831 -123.50066 -59.94856 rrcurveto
          80.41797 -265.59473 rmoveto
          -10.778 23.01172 -19.83072 46.97656 -28.88347 70.9414 155.55013 71.0586 112.65463 112.11523 69.75911 153.17188 36.75787 80.71005 18.37892 69.90367 0 59.09727 0 77.57465 -31.66832 58.9544 -63.33664 40.33417 -56.05928 35.67305 -52.83385 17.83653 -49.60837 0 -83.58525 0 -74.42854 -50.636 -65.27182 -101.27202 rrcurveto
          -51.53082 -103.67595 -25.76541 -113.93056 0 -124.18513 rrcurveto
          hintmask 10110000
          0 -140.87933 33.15831 -154.0763 66.31664 -167.27324 15.04433 -31.8382 20.79236 -15.9191 26.54037 0 6.19966 0 6.51332 0.86864 6.82695 1.73729 28.42062 15.13031 14.21031 20.20038 0 25.27045 0 7.28514 -1.18102 7.70653 -2.36203 8.1279 rrcurveto
          endchar
        </CharString>
        <CharString name="gorZD.brzhd">
          -5 453 117 hstem
          -149 120 178.01282 131.98718 vstem
          73 141 rmoveto
          -68 62 -34 67.5 0 73 rrcurveto
          73 31.5 36.5 63 55.67522 27.8376 -40.33958 -80.67915 vhcurveto
          0 -77.30374 -25.3376 -63.66043 -50.67522 -50.01709 rrcurveto
          177.08586 -202.06627 rmoveto
          -2.41331 10.40022 -3.49416 7.48763 -4.575 4.575 -4.575 4.575 -13.48273 11.60876 -22.39047 18.64255 -17.43681 14.51807 -16.05173 20.59236 -14.66667 26.66667 86.66667 108.66667 43.33333 94 0 79.33333 rrcurveto
          153.33333 -71.66667 76.66667 -143.33333 -143.33333 -71.66667 -74.66667 -149.33333 vhcurveto
          0 -87.47008 52.61726 -107.32564 105.23454 -127.18123 2.28505 -3.70462 2.00111 -2.65852 1.71718 -1.61241 1.71718 -1.61241 16.68486 -19.55392 31.65254 -37.49542 31.65254 -37.49544 25.22662 -25.43759 18.80069 -13.37978 5.44455 -3.87468 4.19438 -3.31462 2.94421 -2.75458 2.94423 -2.75458 8.94821 -3.98381 14.95222 -5.21309 rrcurveto
          14.95222 -5.21307 13.01738 1.26566 11.08255 7.7444 30.19783 21.102 10.33876 25.31973 -9.52028 29.53743 rrcurveto
          endchar
        </CharString>
        <CharString name="i">
          -314 21 -21 21 -21 500 -20 hstemhm
          1 120 hintmask 00110000
          1 60 rmoveto
          -1 380 rmoveto
          -105 callsubr
          hintmask 10110000
          -104 callsubr
          endchar
        </CharString>
        <CharString name="k">
          21 -21 21 -21 hstemhm
          0 120 hintmask 00100000
          60 vmoveto
          60 1649 rmoveto
          -103 callsubr
          hintmask 10100000
          -102 callsubr
          endchar
        </CharString>
        <CharString name="koloL">
          -169 20.45427 -21 21 -21 292.34651 -20 hstemhm
          0 266.40039 hintmask 10110000
          76.69359 14.1099 rmoveto
          -101 callsubr
          endchar
        </CharString>
        <CharString name="koloS">
          148 1.13509 124.36131 423.5036 126.54965 hstem
          0 123.50615 334.57632 124.38489 vstem
          165 473 rmoveto
          -98 callsubr
          -64.65332 115.36914 rmoveto
          -3.9685 -3.57391 -3.61752 -3.18929 -3.26653 -2.80464 -3.26653 -2.80464 -2.83138 -2.60043 -2.39622 -2.39622 -54 -54.00002 -27 -79.66667 0 -105.33331 0.00032 -0.23058 0.00017 -0.23047 0 -0.23036 -0.00032 -0.10274 -0.00017 -0.10287 0 -0.10298 0 -104.66667 33.4489 -81.79004 66.89778 -58.9134 rrcurveto
          64.14793 -56.32986 63.68848 -28.16493 63.229 0 63.229 0 62.76953 28.16493 62.31007 56.32986 3.97728 3.55716 3.43037 3.04112 2.88348 2.52509 2.88347 2.52509 2.318 2.08224 1.75252 1.63942 57.00102 53.54037 28.50052 80.796 0 108.05165 0 98.78108 -34.24889 81.66037 -68.49777 64.53966 rrcurveto
          -61.53511 58.12035 -62.38205 29.06017 -63.229 0 -63.229 0 -64.07596 -29.06017 -64.9229 -58.12035 rrcurveto
          endchar
        </CharString>
        <CharString name="koloZ">
          14 0.04883 127.95117 227 126 hstem
          0 115 216 118.3711 vstem
          72 416 rmoveto
          -97 callsubr
          74.5 -253.5 rmoveto
          -96 callsubr
          endchar
        </CharString>
        <CharString name="konCONS">
          -261 0 120 hstem
          0 120 vstem
          60 vmoveto
          -92 callsubr
          endchar
        </CharString>
        <CharString name="konVOW">
          -355 0 80 hstem
          0 80 vstem
          40 80 rmoveto
          -26.66667 -13.33333 -13.33333 -26.66667 -26.66667 13.33333 -13.33333 26.66667 26.66667 13.33333 13.33333 26.66667 26.66667 -13.33333 13.33333 -26.66667 hvcurveto
          endchar
        </CharString>
        <CharString name="l">
          -169 20.45427 -21 21 -21 292.34651 -20 hstemhm
          0 266.40039 hintmask 10110000
          76.69359 14.1099 rmoveto
          -101 callsubr
          endchar
        </CharString>
        <CharString name="luD1">
          -75 21 -21 21 -21 586 -20 hstemhm
          240 120 hintmask 10110000
          300 hmoveto
          40 20 20 40 hvcurveto
          0 228.66667 -89.66667 173.66666 -179.33333 118.66667 rrcurveto
          -0.71478 -1.2367 rlineto
          -8.5359 4.15779 -10.09506 2.0789 -11.65425 0 -40 0 -20 -20 0 -40 0 -26.54784 9.40039 -17.88399 18.80078 -9.22012 rrcurveto
          -0.20117 -0.34805 rlineto
          141.33333 -91.33333 70.66667 -137.33334 0 -183.33333 rrcurveto
          -40 20 -20 40 vhcurveto
          endchar
        </CharString>
        <CharString name="luD2">
          -75 21 -21 21 -21 586 -20 hstemhm
          0 120 hintmask 10110000
          60 586 rmoveto
          -40 -20 -20 -40 hvcurveto
          0 -228.66667 89.66667 -173.66666 179.33333 -118.66667 rrcurveto
          0.71478 1.2367 rlineto
          8.5359 -4.15779 10.09506 -2.0789 11.65425 0 40 0 20 20 0 40 0 26.54784 -9.40039 17.88399 -18.80078 9.22012 rrcurveto
          0.20117 0.34805 rlineto
          -141.33333 91.33333 -70.66667 137.33334 0 183.33333 rrcurveto
          40 -20 20 -40 vhcurveto
          endchar
        </CharString>
        <CharString name="luD3">
          -75 21 -21 21 -21 582 -21 hstemhm
          0 120 hintmask 10110000
          60 hmoveto
          40 20 20 40 hvcurveto
          0 183.24933 70.60191 137.29146 141.20384 91.33363 19.46283 9.0251 9.73141 18.04185 0 27.05862 0 40 -20 20 -40 0 -12.00972 0 -10.35399 -2.20766 -8.69824 -4.41531 rrcurveto
          -0.93805 1.62297 rlineto
          -179.33333 -118.66667 -89.66667 -173.66666 0 -228.66667 rrcurveto
          -40 20 -20 40 vhcurveto
          endchar
        </CharString>
        <CharString name="luD4">
          -75 5 581 hstem
          241 120 vstem
          301 586 rmoveto
          -40 -20 -20 -40 hvcurveto
          0 -183.24933 -70.60191 -137.29146 -141.20384 -91.33363 -19.46283 -9.0251 -9.73141 -18.04185 0 -27.05862 0 -40 20 -20 40 0 12.00972 0 10.35399 2.20766 8.69824 4.41531 rrcurveto
          0.93805 -1.62297 rlineto
          179.33333 118.66667 89.66667 173.66666 0 228.66667 rrcurveto
          40 -20 20 -40 vhcurveto
          endchar
        </CharString>
        <CharString name="luGL">
          -80 1 120 41 292.80078 hstem
          0 356 vstem
          150 392 rmoveto
          -91 callsubr
          20 -351 rmoveto
          -91 callsubr
          -60 -20 rmoveto
          -40 20 -20 40 vhcurveto
          62.66667 0 53.33333 22 44 44 44 44 22 53.5 0 63 0 63 -22.30302 53.63347 -44.60606 44.26692 -44.60605 44.26692 -56.99869 22.13347 -69.39128 0 -21.66287 0 -25.0982 -12.93343 -28.53352 -25.86687 -28.53352 -25.86687 -14.26677 -36.40501 0 -46.94319 rrcurveto
          0 -46.94318 18.93327 -39.32837 37.86653 -31.71358 21.33333 -17.86687 25.33334 -8.93343 29.33333 0 45.43933 0 35.62044 19.3821 25.80154 38.76418 -1.60329 -26.50896 -11.17767 -23.15161 -20.75206 -19.79428 -20.75206 -19.79428 -25.24452 -9.86491 -29.73698 0.06445 -0.13142 -0.06445 -0.1315 -0.03223 -0.1316 0 rrcurveto
          -40 -20 -20 -40 hvcurveto
          endchar
        </CharString>
        <CharString name="luKL">
          28 -136.375 108.375 116.09085 289.9315 hstemhm
          0 307 -121.35938 121.375 48.57333 107.57968 hintmask 11011000
          307.00781 39.5 rmoveto
          0.00523 19.76393 rlineto
          0.00171 0.24463 0.00085 0.24536 0 0.24606 rrcurveto
          0 9 rlineto
          hintmask 11101000
          -0.01562 54 rlineto
          32.39264 -36.61777 16.19632 -33.73666 0 -30.85553 0 -7.77985 -1.02965 -7.59668 -2.05931 -7.41351 -5 -18 -9.16145 -9 -13.32292 0 rrcurveto
          -12.01712 0 -6.00261 22.5 0.01192 45 rrcurveto
          -103.99219 336.5 rmoveto
          -16 -9 rlineto
          -9.34375 6 -8.00098 3.3291 -6.6582 0.6582 -6.79068 0.69003 -6.63083 0.34502 -6.47098 0 -37.37149 0 -32.04007 -11.50745 -26.70865 -23.01491 -31.33333 -27 -15.66667 -36.97101 0 -46.94203 0 -46.94203 19.5 -39.86232 39 -32.78261 19.75554 -16.6061 28.5533 -8.30305 37.35109 0 rrcurveto
          6.1342 0 6.3715 0.22395 6.60878 0.44789 rrcurveto
          hintmask 11011000
          9.81706 0.82487 7.4554 3.2041 5.09375 5.58333 rrcurveto
          -113.75 vlineto
          -80.66881 39.92072 -40.33441 79.84142 vhcurveto
          0.41156 0 0.41263 0.00108 0.41368 0.00214 56.23958 0.25 40.125 16.625 24.01042 33 23.98958 33 12.04167 24.70833 0.09375 16.41667 0.01868 2.0295 0.00934 2.012 0 1.9945 0 59.18233 -8.22289 43.77968 -16.44576 28.377 -17 29.33333 -43.82812 52.66667 -70.65625 76 rrcurveto
          0 6.66667 -3 30.33333 -6 54 rrcurveto
          endchar
        </CharString>
        <CharString name="luKLY">
          -102 -67.87405 292.67484 hstem
          0 333.25195 vstem
          215.44043 192.03825 rmoveto
          -25.22333 21.8417 -27.9458 10.92084 -30.66829 0 -30.66829 0 -29.6009 -12.93343 -28.53352 -25.86687 -28.53352 -25.86687 -14.26677 -36.42232 0 -46.97777 0 -46.97777 14.66667 -35.71098 29.33333 -24.4442 29.7665 -24.9831 29.40575 -12.49155 29.04501 0 11.48723 0 11.43082 1.9539 11.37439 3.90782 rrcurveto
          111.31836 8.77266 55.58075 67.21243 -0.15685 125.65224 0.16667 20.91667 0.125 11.45833 0.08333 2 rrcurveto
          -0.125 hlineto
          40 -20 20 -40 vhcurveto
          -32.16803 0 -19.35384 -13.98724 -6.53966 -27.9745 rrcurveto
          endchar
        </CharString>
        <CharString name="luNOdol">
          341 -128.02548 126.58719 hstem
          0 776 vstem
          60 120 rmoveto
          -40 -20 -20 -40 hvcurveto
          0 -17.2554 6 -17.28777 12 -17.32011 74.60764 -90.77481 115.7285 -45.38739 156.84935 0 5.7303 0 5.78517 0.06058 5.84006 0.12115 165.69402 3.4375 120.15298 53.99153 74.61198 104.54558 16.68613 23.27324 9.09218 13.43958 1.4982 3.60588 1.37845 3.31766 0.90784 2.18349 0.43721 1.0493 rrcurveto
          -0.34941 0.14711 rlineto
          2.23293 7.03336 1.11647 7.95096 0 8.86856 0 40 -20 20 -40 0 -29.45303 0 -18.81145 -12.07939 -8.16988 -24.15877 rrcurveto
          -0.56564 0.23816 rlineto
          -58 -79.33333 -88.83333 -43.16667 -119.66667 -7 -10.69362 -0.62553 -10.48732 -0.31276 -10.28104 0 -104.76862 0 -83.34601 32.47943 -61.9234 64.95886 rrcurveto
          -0.33066 -0.23341 rlineto
          -10.47966 16.1556 -16.88979 8.0778 -23.2999 0 rrcurveto
          endchar
        </CharString>
        <CharString name="luNdol">
          17 -70.52321 125.48047 hstem
          0 452 vstem
          60 120 rmoveto
          -40 -20 -20 -40 hvcurveto
          0 -15.83826 2.44746 -11.51724 4.89491 -7.19624 4.89491 -7.19624 3.55255 -5.77051 2.21016 -4.34479 33.34453 -52.43996 57.62802 -26.21997 81.91151 0 19.64227 0 21.03864 1.50774 22.43503 3.01547 70.66667 9.33333 60.33333 41.37695 50 73.42058 1.12717 1.39052 1.8067 2.18042 2.48624 2.97034 rrcurveto
          2.48624 2.97034 1.92937 3.19917 1.37248 3.428 1.37248 3.42801 0.9306 2.24345 0.48872 1.0589 rrcurveto
          -0.34941 0.14711 rlineto
          2.23293 7.03336 1.11647 7.95096 0 8.86856 0 40 -20 20 -40 0 -29.45303 0 -18.81145 -12.07939 -8.16988 -24.15877 rrcurveto
          -0.56564 0.23816 rlineto
          -20.66667 -42 -35.16666 -24.16667 -49.66667 -6.33333 -8.06552 -1.02849 -7.79742 -0.51425 -7.5293 0 -38.83537 0 -31.70259 13.68092 -24.5698 27.36182 rrcurveto
          -0.33066 -0.23341 rlineto
          -10.47966 16.1556 -16.88979 8.0778 -23.2999 0 rrcurveto
          endchar
        </CharString>
        <CharString name="luNgor">
          17 110.03786 125.48047 hstem
          0 452 vstem
          452 104.99512 rmoveto
          0 15.83826 -2.44746 11.51724 -4.89491 7.19624 -4.89491 7.19624 -3.55255 5.77051 -2.21016 4.34479 -33.34453 52.43996 -57.62802 26.21997 -81.91151 0 -19.64227 0 -21.03864 -1.50774 -22.43503 -3.01547 -70.66667 -9.33333 -60.33333 -41.37695 -50 -73.42058 -1.12717 -1.39052 -1.8067 -2.18042 -2.48624 -2.97034 rrcurveto
          -2.48624 -2.97034 -1.92937 -3.19917 -1.37248 -3.428 -1.37248 -3.42801 -0.9306 -2.24345 -0.48872 -1.0589 rrcurveto
          0.34941 -0.14711 rlineto
          -2.23293 -7.03336 -1.11647 -7.95096 0 -8.86856 0 -40 20 -20 40 0 29.45303 0 18.81145 12.07939 8.16988 24.15877 rrcurveto
          0.56564 -0.23816 rlineto
          20.66667 42 35.16666 24.16667 49.66667 6.33333 8.06552 1.02849 7.79742 0.51425 7.5293 0 38.83537 0 31.70259 -13.68092 24.5698 -27.36182 rrcurveto
          0.33066 0.23341 rlineto
          10.47966 -16.1556 16.88979 -8.0778 23.2999 0 40 0 20 20 0 40 rrcurveto
          endchar
        </CharString>
        <CharString name="luONgor">
          341 20.58691 -21 21 -21 166.4383 126.58719 hstemhm
          3.34941 772.65059 hintmask 10110000
          116.43436 35.82507 rmoveto
          0.56564 -0.23816 rlineto
          58 79.33333 88.83333 43.16667 119.66667 7 10.69362 0.62553 10.48732 0.31276 10.28104 0 104.76862 0 83.34601 -32.47943 61.9234 -64.95886 rrcurveto
          0.33066 0.23341 rlineto
          10.47966 -16.1556 16.88979 -8.0778 23.2999 0 40 0 20 20 0 40 0 17.2554 -6 17.28777 -12 17.32011 -74.60764 90.77481 -115.7285 45.38739 -156.84935 0 -5.7303 0 -5.78517 -0.06058 -5.84006 -0.12115 -165.69402 -3.4375 -120.15298 -53.99153 -74.61198 -104.54558 rrcurveto
          -16.68613 -23.27324 -9.09218 -13.43958 -1.4982 -3.60588 -1.37845 -3.31766 -0.90784 -2.18349 -0.43721 -1.0493 rrcurveto
          0.34941 -0.14711 rlineto
          -2.23293 -7.03336 -1.11647 -7.95096 0 -8.86856 0 -40 20 -20 40 0 rrcurveto
          29.45303 0 18.81145 12.07939 8.16988 24.15877 rrcurveto
          endchar
        </CharString>
        <CharString name="luSJ">
          24 -43.20522 166.71109 68.6206 116.80551 hstem
          343.7727 115.37207 vstem
          168.59375 82.16992 rmoveto
          -0.93945 0.3418 rlineto
          -2.96419 -8.14388 -10.72234 -0.70866 -18.48047 6.72656 -18.48047 6.72656 -1.77278 23.87988 14.93489 41.0332 9.73042 26.73405 19.77206 13.36703 29.81372 0 15.94635 0 18.81908 -3.82407 21.6918 -7.64812 65.22021 -23.73799 32.6101 -36.22865 0 -48.71931 0 -15.3921 -3.25497 -16.63887 -6.50992 -17.8856 rrcurveto
          -19.85547 -54.55403 -24.85124 -29.2946 -29.847 -4.03516 rrcurveto
          0.29399 -1.42375 rlineto
          -20.81125 -3.0611 -14.71161 -13.36168 -8.61197 -23.66228 -3.65083 -10.03033 -1.82542 -9.17911 0 -8.3279 0 -22.88026 13.77887 -16.455 27.55774 -10.02974 17.54102 -6.38411 15.05437 -0.51303 12.5677 5.35808 63.91693 27.40346 47.4248 56.19597 30.93268 84.98846 13.48909 37.06071 6.74454 34.18552 0 31.3103 rrcurveto
          0 91.96342 -58.18465 67.15921 -116.3693 42.35501 -41.01276 14.7281 -36.67638 7.36404 -32.34003 0 -74.52814 0 -51.49858 -39.109 -28.46902 -78.21802 -12.52711 -34.41797 -6.26355 -30.71725 0 -27.01654 0 -61.02335 31.95605 -42.14267 63.91211 -23.262 29.72859 -10.82028 26.32971 -5.41014 22.93086 0 rrcurveto
          48.19255 0 33.18002 23.89615 18.16748 47.7923 8.49112 15.38104 4.24557 13.66911 0 11.95717 0 21.94777 -14.3041 16.1799 -28.60817 10.41205 -10.02986 3.6504 -9.17876 1.8252 -8.32765 0 -22.88077 0 -16.45569 -13.77864 -10.0306 -27.55731 rrcurveto
          endchar
        </CharString>
        <CharString name="luT1">
          -9 21 -21 21 -21 897.53432 -20 hstemhm
          305.56348 120 hintmask 10110000
          365.56348 hmoveto
          40 20 20 40 hvcurveto
          0 0.00032 0 19.99968 rlineto
          0 406.66667 -107.24707 267.4873 -214.49414 128.30794 -17.40483 10.04826 -15.51614 5.02414 -13.62749 0 -19.39627 0 -15.57013 -10.17809 -11.74399 -20.35619 -7.3171 -12.68292 -3.65855 -11.69966 0 -10.71642 0 -18.5751 10.99191 -15.621 21.9838 -12.66685 rrcurveto
          0 0 rlineto
          182.69165 -105.47559 91 -235.0127 -0.69165 -364.5498 rrcurveto
          -20 vlineto
          -40 20 -20 40 vhcurveto
          endchar
        </CharString>
        <CharString name="luT2">
          -9 2.79503 897.40224 hstem
          1.00098 120 vstem
          61.00098 900.19727 rmoveto
          -40 -20 -20 -40 hvcurveto
          -20 vlineto
          0 -406.66667 107.24707 -267.4873 214.49414 -128.30794 17.2523 -9.96022 15.4218 -4.9801 13.5913 0 19.63594 0 15.81516 10.3949 11.99437 20.7898 6.9357 12.02164 3.46786 11.1982 0 10.3748 0 19.99309 -12.8784 16.93521 -25.7568 13.87733 -2.00519 1.08037 -2.11482 1.25974 -2.22444 1.43909 rrcurveto
          -174.58594 112.94792 -86.95866 232.67935 0.66862 352.41081 rrcurveto
          20 vlineto
          40 -20 20 -40 vhcurveto
          endchar
        </CharString>
        <CharString name="luT3">
          -10 21 -21 21 -21 898.06561 -20 hstemhm
          -0.0293 120 hintmask 10110000
          59.9707 hmoveto
          40 20 20 40 hvcurveto
          0 363.13445 87.97786 238.67937 175.95573 114.22427 3.73404 2.43866 3.73181 2.17616 3.72958 1.91364 29.2683 13.06186 9.20235 25.03845 -10.8636 37.01505 -1.5093 5.14252 -1.23885 4.35017 -0.9684 3.55783 -11.04764 18.22214 -16.30055 9.11105 -21.55347 0 -10.9879 0 -12.35309 -2.36789 -13.71829 -4.73581 rrcurveto
          -222.03949 -128.17822 -111 -270.32063 0.03949 -412.46306 -0.03906 -6.66669 -0.01953 -6.66667 0 -6.66664 rrcurveto
          -40 20 -20 40 vhcurveto
          endchar
        </CharString>
        <CharString name="luT4">
          -10 20.99982 -21 21 -21 898.06561 -20 hstemhm
          306 120 hintmask 10110000
          366 898.06543 rmoveto
          -100 callsubr
          endchar
        </CharString>
        <CharString name="luU0">
          20 -164.0262 120.0262 884 -20 hstem
          0 120 213 121 vstem
          60 120 rmoveto
          -40 -20 -20 -40 hvcurveto
          0 -147.33333 55 -74.66667 110 -2 1.00629 -0.01747 1.00366 -0.00873 1.00104 0 189.99617 0 95.32967 314.6754 0.66318 629.3508 rrcurveto
          40 -20 20 -40 -40 -20 -20 -40 vhcurveto
          -1 hlineto
          -549.33333 -55 -274.66667 -110 -32 -16 34.66667 69.33333 40 -20 20 -40 vhcurveto
          endchar
        </CharString>
        <CharString name="luU1">
          152 -164.05115 120.05115 884 -20 hstem
          0 120 345 121 vstem
          60 120 rmoveto
          -40 -20 -20 -40 hvcurveto
          0 -147.33333 63.66667 -74.66667 127.33333 -2 1.91928 -0.0341 1.91228 -0.01704 1.90529 0 258.84697 0 129.7544 314.68372 0.66179 629.36743 rrcurveto
          40 -20 20 -40 -40 -20 -20 -40 vhcurveto
          -1 hlineto
          -549.33333 -90.33333 -274.66667 -180.66667 -49.33333 -24.66667 34.66667 69.33333 40 -20 20 -40 vhcurveto
          endchar
        </CharString>
        <CharString name="luU2">
          338 -207.2407 115.8862 638.45998 -21 hstem
          -1.52153 116.4826 vstem
          146.96582 -85 rmoveto
          -21.3365 15.65866 -10.66824 27.96082 0 40.26299 0 12.80208 1.07855 14.04582 2.1571 15.28955 2.20422 9.36287 1.10211 8.5242 0 7.68552 0 31.58327 -18.61201 17.42001 -37.22406 3.25676 -3.20583 0.28049 -3.08815 0.14023 -2.97049 0 -33.95186 0 -18.57883 -18.32089 -3.20583 -36.64182 rrcurveto
          -1.45836 -14.96751 -0.72919 -14.42416 0 -13.8808 0 -98.21677 36.50717 -71.0127 73.01436 -43.80861 16.87672 -10.16048 18.33167 -5.08023 19.7866 0 133.38565 0 199.50381 230.86588 265.622 461.73178 7.42213 12.77473 3.71106 11.78172 0 10.78871 0 18.56076 -10.98372 15.62175 -21.96745 12.68275 rrcurveto
          -12.67957 7.32045 -11.69878 3.66023 -10.718 0 -18.56427 0 -15.62186 -10.98087 -12.67944 -21.96173 rrcurveto
          -0.86621 0.5 rlineto
          -249.64812 -424.97333 -163.16985 -212.48665 -76.69156 0 -7.65706 0 -6.795 2.11816 -5.93295 4.23634 rrcurveto
          endchar
        </CharString>
        <CharString name="luU3">
          447 -164.00153 119.99985 593.7302 -21 hstem
          -1 120.00098 vstem
          -1 60 rmoveto
          0.66667 -149.33333 80.66666 -74.66667 160.66667 0 0.25577 -0.00102 0.25587 -0.0005 0.25597 0 167.15709 0 209.43349 217.28003 251.7099 434.56004 7.48082 12.82925 3.7404 11.82928 0 10.82928 0 18.5585 -10.9851 15.62167 -21.97021 12.68486 -12.67957 7.32045 -11.69878 3.66023 -10.718 0 rrcurveto
          -18.56427 0 -15.62186 -10.98087 -12.67944 -21.96173 rrcurveto
          -0.86719 0.49902 rlineto
          -227.95265 -395.15346 -173.63416 -197.57674 -119.31566 0 -0.20096 0 -0.2008 0.00056 -0.20065 0.00111 -82.66667 0 -41.66634 34.66667 -0.66602 69.33333 -0.00139 40 -20.00034 20 -39.99925 0 -40 0 -20 -20 0 -40 rrcurveto
          endchar
        </CharString>
        <CharString name="luU4">
          17 -163.51512 119.51512 hstem
          0 120 211 120 vstem
          331 80 rmoveto
          -82.66667 -35.16667 -41.33333 -70.33333 -70.33333 -35.16667 34.66667 69.33333 40 -20 20 -40 -40 -20 -20 -40 vhcurveto
          0 -148.68555 75.16667 -74.50471 150.33333 -0.3239 0.29874 -0.00064 0.29845 -0.00032 0.29814 0 rrcurveto
          149.73645 74.86823 81.1717 162.34341 40 -20 20 -40 -40 -20 -20 -40 hvcurveto
          endchar
        </CharString>
        <CharString name="luU5">
          20 20.203 -21 21 -21 313.94034 116.42073 252.37778 -20 hstemhm
          710.16748 125.06517 hintmask 10111000
          802.29004 769.86914 rmoveto
          -12.99274 7.50156 -11.9094 3.7508 -10.82608 0 -18.03777 0 -15.03041 -10.4123 -12.02306 -20.82457 -8.57233 -14.84775 -3.76772 -13.4549 1.03693 -12.06204 -54.07907 -186.98196 -65.01318 -93.31784 -75.9473 0.34627 -0.25635 -0.00156 -0.2558 -0.00078 -0.2553 0 -61.57365 0 -30.78683 45.35071 0 90.70143 rrcurveto
          0.31247 2.37161 1.90923 3.98155 3.50597 5.59149 13.57118 16.83366 6.7856 15.39478 0 13.95589 0 18.18044 -11.51546 15.73859 -23.0309 13.29672 -12.67932 7.3206 -11.69858 3.66031 -10.71786 0 -18.56392 0 -15.62172 -10.98094 -12.67953 -21.96188 -110.38477 -191.33269 -107.16699 -185.61816 -103.94922 -179.90364 rrcurveto
          -7.3205 -12.67932 -3.66025 -11.6986 0 -10.71785 0 -18.56398 10.98088 -15.62172 21.96178 -12.67947 12.67946 -7.32039 11.69868 -3.6602 10.71791 0 18.56392 0 15.62163 10.98051 12.67934 21.96101 rrcurveto
          217.00098 375.85547 rlineto
          30.62039 -63.23778 64.51593 -31.61888 98.41145 0 127.51997 0 99.9014 124.9213 72.2828 249.84259 7.32045 12.67957 3.66023 11.69878 0 10.718 rrcurveto
          0 18.56427 -10.98087 15.62186 -21.96173 12.67944 rrcurveto
          endchar
        </CharString>
        <CharString name="luUa0">
          20 20.97266 -21 21 -21 741 -21 164 120.0262 hstemhm
          1 120 214 120 hintmask 10111100
          121 59.97266 rmoveto
          1 hlineto
          549.33333 55 274.66667 110 32 16 -34.66667 -69.33333 -40 20 -20 40 40 20 20 40 vhcurveto
          0 147.33333 -55 74.66667 -110 2 -1.00629 0.01747 -1.00366 0.00873 -1.00104 0 -189.99617 0 -95.32967 -314.6754 -0.66318 -629.3508 rrcurveto
          -40 20 -20 40 vhcurveto
          40 20 20 40 hvcurveto
          endchar
        </CharString>
        <CharString name="luUa1">
          152 20.9502 -21 21 -21 741 -21 164 120.05115 hstemhm
          1 120 346 120 hintmask 10111100
          121 59.9502 rmoveto
          1 hlineto
          549.33333 90.33333 274.66667 180.66667 49.33333 24.66667 -34.66667 -69.33333 -40 20 -20 40 40 20 20 40 vhcurveto
          0 147.33333 -63.66667 74.66667 -127.33333 2 -1.91928 0.0341 -1.91228 0.01704 -1.90529 0 -258.84697 0 -129.7544 -314.68372 -0.66179 -629.36743 rrcurveto
          -40 20 -20 40 vhcurveto
          40 20 20 40 hvcurveto
          endchar
        </CharString>
        <CharString name="luUa2">
          378 20.8865 -21 21 -21 669.90257 115.8862 hstemhm
          658.536 116.4826 hintmask 10110000
          655.30034 537.41466 rmoveto
          -2.33475 -9.91733 -1.16737 -8.97034 0 -8.02335 0 -30.67955 17.06865 -16.83313 34.13733 -2.9867 3.72023 -0.32549 3.57256 -0.16275 3.42488 0 36.22101 0 19.70306 18.20267 3.18513 36.40533 1.45836 14.96751 0.72919 14.42416 0 13.8808 0 98.21677 -36.50717 71.0127 -73.01436 43.80861 rrcurveto
          -16.87672 10.16048 -18.33167 5.08023 -19.7866 0 -133.38565 0 -199.50381 -230.86588 -265.622 -461.73178 -7.42213 -12.77473 -3.71106 -11.78172 0 -10.78871 0 -18.56076 10.98372 -15.62175 21.96745 -12.68275 12.67957 -7.32045 11.69878 -3.66023 10.718 0 18.56427 0 15.62186 10.98087 12.67944 21.96173 rrcurveto
          0.86621 -0.5 rlineto
          249.64812 424.97333 163.16985 212.48665 76.69156 0 7.65706 0 6.795 -2.11816 5.93295 -4.23634 21.3365 -15.65866 10.66824 -27.96082 0 -40.26299 rrcurveto
          0 -12.80208 -1.07855 -14.04582 -2.1571 -15.28955 rrcurveto
          endchar
        </CharString>
        <CharString name="luUa3">
          447 626.32687 119.99985 hstem
          762.27441 120.00098 vstem
          114.90332 34.0957 rmoveto
          0.86719 -0.49902 rlineto
          227.95265 395.15346 173.63416 197.57674 119.31566 0 0.20096 0 0.2008 -0.00056 0.20065 -0.00111 82.66667 0 41.66634 -34.66667 0.66602 -69.33333 0.00139 -40 20.00034 -20 39.99925 0 40 0 20 20 0 40 -0.66667 149.33333 -80.66666 74.66667 -160.66667 0 rrcurveto
          -0.25577 0.00102 -0.25587 0.0005 -0.25597 0 -167.15709 0 -209.43349 -217.28003 -251.7099 -434.56004 -7.48082 -12.82925 -3.7404 -11.82928 0 -10.82928 0 -18.5585 10.9851 -15.62167 21.97021 -12.68486 12.67957 -7.32045 11.69878 -3.66023 10.718 0 18.56427 0 15.62186 10.98087 12.67944 21.96173 rrcurveto
          endchar
        </CharString>
        <CharString name="luUa4">
          16 183 119.51512 hstem
          0 120 211 120 vstem
          451 79 rmoveto
          0 148.68555 -75.16667 74.50471 -150.33333 0.3239 -0.29874 0.00064 -0.29845 0.00032 -0.29814 0 rrcurveto
          -149.73645 -74.86823 -81.1717 -162.34341 -40 20 -20 40 40 20 20 40 82.66667 35.16667 41.33333 70.33333 70.33333 35.16667 -34.66667 -69.33333 -40 20 -20 40 40 20 20 40 hvcurveto
          endchar
        </CharString>
        <CharString name="luUs">
          -435 endchar
        </CharString>
        <CharString name="m">
          15 21 -21 21 -21 979.99414 120.00603 hstemhm
          330 120 hintmask 00110000
          330 60 rmoveto
          -214.97336 848.50273 rmoveto
          0.97336 -0.50859 rlineto
          24 48 32.66667 24 41.33333 0 rrcurveto
          77.33333 38.66667 -14.66667 -29.33333 hvcurveto
          -35.99414 vlineto
          0.00008 -0.05486 0.00005 -0.05287 0 -0.05089 0.00064 -0.10742 0.00034 -0.10728 0 -0.10715 -0.00073 -0.1728 -0.00037 -0.17317 0 -0.17355 rrcurveto
          -839 vlineto
          hintmask 10110000
          -40 20 -20 40 40 20 20 40 vhcurveto
          875.99414 vlineto
          109.33736 -77.3924 54.66867 -154.7848 vhcurveto
          -0.9381 0 -0.94093 -0.00201 -0.94377 -0.00401 -88.66667 0 -70 -44.66667 -51.33333 -89.33333 rrcurveto
          0.5593 -0.29224 rlineto
          -3.70619 -8.37958 -1.8531 -9.90259 0 -11.4256 0 -40 20 -20 40 0 27.6122 0 18.34222 10.8362 9.07222 21.6724 rrcurveto
          endchar
        </CharString>
        <CharString name="malaspacja">
          -295 endchar
        </CharString>
        <CharString name="n">
          349 -25.52321 125.49149 10.05856 125.49149 hstem
          0 784 vstem
          667.56564 173.76184 rmoveto
          -0.56564 0.23816 rlineto
          -20.66667 -42 -35.11752 -24.16052 -49.56839 -6.32104 -8.10399 -1.03345 -7.83257 -0.51671 -7.56113 0 -38.68692 0 -31.5813 13.52716 -24.47571 27.05432 -0.65831 1.0912 -1.17967 1.90471 -1.70103 2.71823 -1.70103 2.71822 -1.9556 3.5315 -2.21016 4.34479 -33.34453 52.43996 -57.62802 26.21997 -81.91151 0 rrcurveto
          -19.64227 0 -21.03864 -1.50774 -22.43503 -3.01547 -70.66667 -9.33333 -60.33333 -41.37695 -50 -73.42058 -1.12717 -1.39052 -1.8067 -2.18042 -2.48624 -2.97034 -2.48624 -2.97034 -1.92937 -3.19917 -1.37248 -3.428 -1.37248 -3.42801 -0.9306 -2.24345 -0.48872 -1.0589 rrcurveto
          0.34941 -0.14711 rlineto
          -2.23293 -7.03336 -1.11647 -7.95096 0 -8.86856 0 -40 20 -20 40 0 29.45303 0 18.81145 12.07939 8.16988 24.15877 rrcurveto
          0.56564 -0.23816 rlineto
          20.66667 42 35.11752 24.16052 49.56839 6.32104 8.10399 1.03345 7.83257 0.51671 7.56113 0 38.68692 0 31.5813 -13.52716 24.47571 -27.05432 0.65831 -1.0912 1.17967 -1.90471 1.70103 -2.71823 1.70103 -2.71822 1.9556 -3.5315 2.21016 -4.34479 33.34453 -52.43996 57.62802 -26.21997 81.91151 0 rrcurveto
          19.64227 0 21.03864 1.50774 22.43503 3.01547 70.66667 9.33333 60.33333 41.37695 50 73.42058 1.12717 1.39052 1.8067 2.18042 2.48624 2.97034 2.48624 2.97034 1.92937 3.19917 1.37248 3.428 1.37248 3.42801 0.9306 2.24345 0.48872 1.0589 rrcurveto
          -0.34941 0.14711 rlineto
          2.23293 7.03336 1.11647 7.95096 0 8.86856 0 40 -20 20 -40 0 -29.45303 0 -18.81145 -12.07939 -8.16988 -24.15877 rrcurveto
          endchar
        </CharString>
        <CharString name="o">
          -10 20.99982 -21 21 -21 898.06561 -20 hstemhm
          305 120 hintmask 10110000
          365 898.06543 rmoveto
          -100 callsubr
          endchar
        </CharString>
        <CharString name="okreci">
          -24 0 120 538 120 hstem
          290.58067 120.41933 vstem
          80 718 rmoveto
          -91 callsubr
          20 -678 rmoveto
          -91 callsubr
          311 322 rmoveto
          -91 callsubr
          -351 296 rmoveto
          -40 20 -20 40 vhcurveto
          3.93494 0 3.74187 0.20737 3.5488 0.41475 73.31601 -3.51324 64.25813 -38.87404 55.20026 -74.23483 17.49623 -23.74489 8.87407 -28.16898 0.25188 -32.59306 0.25188 -32.59306 0.12595 -18.53445 0 -4.47585 0 -4.47583 -0.13977 -18.58444 -0.27956 -32.69304 -0.27956 -32.69304 -9.02689 -30.3788 -17.77423 -28.06456 rrcurveto
          -55.53055 -86.31035 -64.13957 -45.22867 -72.74861 -4.14702 -3.52225 0.45735 -3.69376 0.22868 -3.86526 0 rrcurveto
          -40 -20 -20 -40 -40 20 -20 40 hvcurveto
          102.14334 0 85.03235 42.06775 67.92139 84.13548 63.93529 79.19785 31.96764 90.59892 0 102 0 102 -33.16667 89 -66.33333 76 -66.19044 75.83629 -83.57106 37.91815 -100.95166 0 -0.21793 0 -0.218 -0.00018 -0.2181 -0.00035 -0.00055 -0.25133 -0.00029 -0.25134 0 -0.25133 rrcurveto
          -0.04396 0.00006 -0.04399 0.00003 -0.04402 0 rrcurveto
          -40 -20 -20 -40 hvcurveto
          endchar
        </CharString>
        <CharString name="okredzi">
          -134 0.00148 119.99843 256.00009 120.66992 hstem
          180.26843 121.23505 vstem
          63.86006 119.9999 rmoveto
          -39.9067 -0.05708 -19.95335 -19.96297 0 -39.86885 0 -40.07272 19.8103 -20.0365 39.62062 -0.0003 63.71371 0 55.68968 23.66617 47.66568 47.33235 47.33565 47.00462 23.66783 58.83855 0 70.67245 0 71.99199 -23.8345 59.4948 -47.66898 46.99759 -47.33333 46.66667 -56.85776 23.55664 -66.38216 0.44661 rrcurveto
          0.00162 -0.22386 0.00081 -0.22386 0 -0.22386 -39.61946 -0.2323 -19.80972 -20.0578 0 -39.88329 0 -39.8833 20 -19.94165 40 0 25.30672 0 26.55376 -13.06398 27.8008 -26.12796 25.97429 -24.41136 13.15433 -21.04163 0.3344 -17.67189 0.3344 -17.6719 0.38138 -11.66483 0.42838 -5.65778 rrcurveto
          -1.92372 -38.09813 -11.69232 -29.30598 -21.46095 -20.51382 -21.46095 -20.51382 -27.11005 -10.13972 -32.75911 0.23438 -0.00084 -0.11722 -0.00043 -0.11722 0 -0.11723 rrcurveto
          endchar
        </CharString>
        <CharString name="okroci">
          107 0 120 479 -21 78.03873 123.46243 hstem
          419.54694 122.45306 vstem
          60 578 rmoveto
          17.39482 0 13.62198 4.05241 9.84914 8.10481 rrcurveto
          0.13406 -0.15723 rlineto
          0.3289 0.37202 0.85976 0.81808 1.39061 1.26411 1.39062 1.26413 1.70715 1.98845 2.02367 2.71277 36.38982 38.41277 35.12555 19.20639 33.86131 0 1.62903 0 1.62611 -0.04445 1.6232 -0.08891 35.36284 -1.9369 42.51476 -20.13513 49.66667 -38.33333 26.34114 -19.81836 20.66862 -37.03792 14.9961 -54.25749 rrcurveto
          7.36072 -26.63187 3.68036 -26.78825 0 -26.94463 0 -27.95006 -3.96014 -28.11833 -7.92029 -28.28659 -15.55566 -55.55566 -20.5 -40.5 -25.44434 -25.44434 -25.44434 -25.44434 -22.72217 -18.88884 -20 -12.33333 -20 -12.33333 -29.33333 -7.16667 -38.66667 -2 rrcurveto
          -40 -20 -20 -40 -40 20 -20 40 hvcurveto
          0.0443 0.00005 0.04427 0 0.04425 -0.00005 1.87697 -0.05614 1.8942 -0.02808 1.9114 0 43.48448 0 52.39487 14.52808 61.30527 29.05614 64 30.33333 51.33333 61.5 38.66667 92.66667 23.33333 56 11.66667 58.33333 0 60.66667 0 97.33333 -33.83333 87.16667 -67.66667 77 rrcurveto
          -67.37567 76.66887 -74.3358 38.33444 -81.2959 0 -0.35112 0 -0.35124 -0.00072 -0.35138 -0.00143 -81.7074 -0.33257 -65.07768 -30.98592 -48.44797 -61.63925 -14.13722 -10.72551 -7.06862 -16.18114 0 -21.63678 0 -40 20 -20 40 0 rrcurveto
          endchar
        </CharString>
        <CharString name="okrodzi">
          -49 0.00127 120.34685 245.98174 126.03789 hstem
          264.50485 125.60262 vstem
          136.90205 119.99995 rmoveto
          -39.9347 -0.03995 -19.96735 -19.96246 0 -39.88496 0 -40.07399 19.82397 -20.0371 39.64795 -0.00021 79.01944 0 68.16885 33.6578 57.31827 67.3156 32.75266 38.46532 16.37633 42.91345 0 47.36162 0 35.52388 -9.21307 38.02634 -18.42613 40.52881 -34.31218 75.47061 -49.58852 46.88309 -64.86488 18.29555 rrcurveto
          -18.73009 5.28294 -18.46162 2.64148 -18.19316 0 -44.81229 0 -43.18353 -16.02594 -41.55476 -32.05188 -19.17815 -9.82333 -9.58908 -17.7633 0 -25.7033 0 -40 20 -20 40 0 12.87373 0 10.80724 2.21964 8.7407 4.43929 rrcurveto
          0.6584 -1.08372 rlineto
          25.96101 19.83644 24.00478 9.91821 22.04854 0 17.53984 0 16.30186 -6.27661 15.06389 -12.55324 33.6699 -28.05826 16.83495 -32.79819 0 -37.53813 0 -38.41402 -12.50162 -31.20181 -25.00323 -23.9896 -24.42479 -23.43459 -29.68562 -11.7173 -34.94647 0 -0.34608 0 -0.3466 0.00114 -0.3471 0.0023 rrcurveto
          -0.00084 -0.1172 -0.00043 -0.1172 0 -0.1172 rrcurveto
          endchar
        </CharString>
        <CharString name="p">
          24 21 -21 21 -21 1625 119 hstemhm
          0 120 212 127.00441 hintmask 00111000
          60 vmoveto
          120 925 rmoveto
          -99 callsubr
          -120 -925 rmoveto
          hintmask 10111000
          -40 20 -20 40 40 20 20 40 vhcurveto
          785 vlineto
          226.00294 209.9554 113.00146 192.61821 0 175.281 rrcurveto
          214.09692 -74.8348 107.04846 -149.66962 -156.33333 -78.16667 -108.33333 -216.66667 vhcurveto
          endchar
        </CharString>
        <CharString name="poczPUA">
          605 -116.36931 156.5949 -156.5949 100.78435 503.73438 -21 548.07617 108.54492 hstemhm
          -601.10938 103.71094 85.2539 91.84814 209.32373 74.41406 556.44922 103.71094 85.2539 91.84814 105.6128 89.9414 hintmask 1011111111000000
          1080.33984 487.14941 rmoveto
          -90.01947 -147.6026 rlineto
          3.3687 46.00203 1.97916 49.59149 0.58958 53.18095 rrcurveto
          -89.9414 hlineto
          -0.6706 -137.47044 -8.66127 -109.7062 -16.65196 -81.94196 rrcurveto
          -95.93037 -157.29456 -58.00327 30.69554 rlineto
          -0.07457 2.45792 -0.03728 2.54065 0 2.62335 rrcurveto
          -90.08789 hlineto
          0 -20.64333 1.85162 -18.40585 3.70323 -16.1684 -13.27354 2.41788 -6.63678 9.8121 0 17.20634 rrcurveto
          7.76367 1.75781 383.73914 vlineto
          118.06804 196.69893 59.03401 181.94221 0 167.18553 0 114.66446 -46.53401 57.33223 -93.06804 0 -93.35938 0 -46.48438 -56.5918 0.39062 -113.1836 rrcurveto
          0 -0.58594 -1.45479 -466.25977 -0.30302 0 0 -493.79883 rlineto
          -73.14659 42.7091 -36.5733 85.41821 vhcurveto
          0.45375 0 0.45496 0.00104 0.45616 0.00206 25.90707 0 23.28935 5.82904 20.67159 11.65808 9.86504 -2.30118 10.74387 -1.2392 11.6227 -0.17722 0.97202 -0.01494 0.96913 -0.00748 0.96623 0 103.61722 0 70.3505 85.93375 37.08379 171.8675 rrcurveto
          179.64464 294.61375 rlineto
          -521.48438 150.73242 rmoveto
          -93 callsubr
          -734.57422 -113.3789 rmoveto
          -26.37637 -235.23813 -97.13242 -150.14482 -167.88846 -65.0515 rrcurveto
          -5.52658 2.92468 rlineto
          -0.5758 -1.95564 -0.60568 -1.9037 -0.6356 -1.85176 -11.239 -4.17537 -11.60133 -3.90685 -11.96367 -3.63832 rrcurveto
          12.47575 -23.93417 rlineto
          hintmask 0111111111000000
          -10.72809 -9.2392 -13.86775 -4.6196 -17.00745 0 rrcurveto
          -17.00743 -8.50372 10.00977 20.01953 hvcurveto
          7.76367 1.75781 383.73914 vlineto
          118.06804 196.69893 59.03401 181.94221 0 167.18553 0 114.66446 -46.53401 57.33223 -93.06804 0 -93.35938 0 -46.48438 -56.5918 0.39062 -113.1836 rrcurveto
          0 -0.58594 -1.45479 -466.25977 -0.30302 0 0 -493.79883 rlineto
          -73.14659 42.7091 -36.5733 85.41821 vhcurveto
          0.45375 0 0.45496 0.00104 0.45616 0.00206 63.70049 0 47.87434 35.2408 32.04817 70.48158 83.22476 40.99368 68.1413 60.75531 53.05782 80.5169 32.03125 48.73047 29.0039 99.60938 25.97656 150.48828 rrcurveto
          -460.83984 130.07812 rmoveto
          -93 callsubr
          endchar
        </CharString>
        <CharString name="prostaCONS">
          -310 -0.03418 900.03418 hstem
          0 119.68457 vstem
          0.11035 900 rmoveto
          -0.11035 -900.03418 119.68457 0.36523 0.42578 899.66895 rlineto
          endchar
        </CharString>
        <CharString name="prostaVOW">
          -355 0 900 hstem
          0 80 vstem
          900 vmoveto
          -900 80 900 vlineto
          endchar
        </CharString>
        <CharString name="quotedblbase">
          798 -833 589 hstem
          309 252 207 252 vstem
          309 -244 rmoveto
          -95 callsubr
          207 hmoveto
          -94 callsubr
          endchar
        </CharString>
        <CharString name="quotedblright">
          798 2137 589 hstem
          309 252 207 252 vstem
          309 2726 rmoveto
          -95 callsubr
          207 hmoveto
          -94 callsubr
          endchar
        </CharString>
        <CharString name="quoteright">
          338 2167 589 hstem
          309 252 vstem
          309 2756 rmoveto
          -95 callsubr
          endchar
        </CharString>
        <CharString name="quotesinglbase">
          338 -843 589 hstem
          309 252 vstem
          309 -254 rmoveto
          -95 callsubr
          endchar
        </CharString>
        <CharString name="s">
          147 1.13509 124.36131 423.5036 126.54965 hstem
          0 123.50615 334.57632 124.38489 vstem
          165 473 rmoveto
          -98 callsubr
          -64.65332 115.36914 rmoveto
          -3.9685 -3.57391 -3.61752 -3.18929 -3.26653 -2.80464 -3.26653 -2.80464 -2.83138 -2.60043 -2.39622 -2.39622 -54 -54.00002 -27 -79.66667 0 -105.33331 0.00032 -0.23058 0.00017 -0.23047 0 -0.23036 -0.00035 -0.10274 -0.00017 -0.10287 0.00003 -0.10298 0 -104.66667 33.4489 -81.79004 66.89778 -58.9134 rrcurveto
          64.14793 -56.32986 63.68848 -28.16493 63.229 0 63.229 0 62.76953 28.16493 62.31007 56.32986 3.97728 3.55716 3.43037 3.04112 2.88348 2.52509 2.88347 2.52509 2.318 2.08224 1.75252 1.63942 57.00102 53.54037 28.50052 80.796 0 108.05165 0 98.78108 -34.24889 81.66037 -68.49777 64.53966 rrcurveto
          -61.53511 58.12035 -62.38205 29.06017 -63.229 0 -63.229 0 -64.07596 -29.06017 -64.9229 -58.12035 rrcurveto
          endchar
        </CharString>
        <CharString name="space">
          565 endchar
        </CharString>
        <CharString name="stemG">
          0 960 hstem
          0 120 vstem
          60 vmoveto
          60 900 rmoveto
          -106 callsubr
          endchar
        </CharString>
        <CharString name="stemG.krt">
          21 -21 21 -21 700 -20 hstemhm
          0 120 hintmask 00110000
          60 vmoveto
          -1 580 rmoveto
          0 -4.84584 0.33333 -4.57188 0.66667 -4.29793 rrcurveto
          -566.28435 vlineto
          hintmask 10110000
          -40 20 -20 40 40 20 20 40 vhcurveto
          579 vlineto
          40.66667 -20 20.33333 -40 vhcurveto
          -0.17487 -0.00078 -0.17447 -0.00038 -0.1741 0 -0.15857 0.00078 -0.15884 0.00038 -0.15915 0 -40 0 -20 -20 0 -40 rrcurveto
          endchar
        </CharString>
        <CharString name="stemI">
          21 -21 21 -21 500 -20 hstemhm
          0 120 hintmask 00110000
          60 vmoveto
          -1 380 rmoveto
          -105 callsubr
          hintmask 10110000
          -104 callsubr
          endchar
        </CharString>
        <CharString name="stemI.krt">
          -314 0 342 hstem
          0 121 vstem
          1 60 rmoveto
          -1 222 rmoveto
          0 -4.84584 0.33333 -4.57188 0.66667 -4.29793 rrcurveto
          -195.03435 vlineto
          -0.66667 -4.16667 -0.33333 -4.41666 0 -4.66667 0 -40 20 -20 40 0 0.1644 0.00072 0.16406 0.00037 0.16373 0 0.16891 -0.00072 0.16927 -0.00037 0.16963 0 rrcurveto
          40 20 20 40 hvcurveto
          221 vlineto
          40.66667 -20 20.33333 -40 vhcurveto
          -0.17487 -0.00078 -0.17447 -0.00038 -0.1741 0 -0.15857 0.00078 -0.15884 0.00038 -0.15915 0 -40 0 -20 -20 0 -40 rrcurveto
          endchar
        </CharString>
        <CharString name="stemK">
          21 -21 21 -21 hstemhm
          0 120 hintmask 00100000
          60 vmoveto
          60 1649 rmoveto
          -103 callsubr
          hintmask 10100000
          -102 callsubr
          endchar
        </CharString>
        <CharString name="stemK.krt">
          21 -21 21 -21 hstemhm
          0 120 hintmask 00100000
          60 vmoveto
          -1 1189 rmoveto
          0 -4.84584 0.33333 -4.57188 0.66667 -4.29793 rrcurveto
          -1175.28435 vlineto
          hintmask 10100000
          -40 20 -20 40 40 20 20 40 vhcurveto
          1188 vlineto
          40.66667 -20 20.33333 -40 vhcurveto
          -0.17487 -0.00078 -0.17447 -0.00038 -0.1741 0 -0.15857 0.00078 -0.15884 0.00038 -0.15915 0 -40 0 -20 -20 0 -40 rrcurveto
          endchar
        </CharString>
        <CharString name="stemKRT">
          0 240 hstem
          -1 121 vstem
          60 vmoveto
          79 120 rmoveto
          -91 callsubr
          20 -140 rmoveto
          -91 callsubr
          -60 100 rmoveto
          0 -4.84584 0.33333 -4.57188 0.66667 -4.29793 rrcurveto
          -93.03435 vlineto
          -0.66667 -4.16667 -0.33333 -4.41666 0 -4.66667 0 -40 20 -20 40 0 0.1644 0.00072 0.16406 0.00037 0.16373 0 0.16891 -0.00072 0.16927 -0.00037 0.16963 0 rrcurveto
          40 20 20 40 hvcurveto
          119 vlineto
          40.66667 -20 20.33333 -40 vhcurveto
          -0.17487 -0.00078 -0.17447 -0.00038 -0.1741 0 -0.15857 0.00078 -0.15884 0.00038 -0.15915 0 -40 0 -20 -20 0 -40 rrcurveto
          endchar
        </CharString>
        <CharString name="u">
          19 -164.0262 120.0262 884 -20 hstem
          0 120 214 120 vstem
          334 780 rmoveto
          -1 hlineto
          -549.33333 -55 -274.66667 -110 -32 -16 34.66667 69.33333 40 -20 20 -40 -40 -20 -20 -40 vhcurveto
          0 -147.33333 55 -74.66667 110 -2 1.00629 -0.01747 1.00366 -0.00873 1.00104 0 189.99617 0 95.32967 314.6754 0.66318 629.3508 rrcurveto
          40 -20 20 -40 -40 -20 -20 -40 vhcurveto
          endchar
        </CharString>
        <CharString name="uni000A">
          2499 endchar
        </CharString>
        <CharString name="uni2029">
          2469 endchar
        </CharString>
        <CharString name="uniD00F">
          -435 endchar
        </CharString>
        <CharString name="z">
          14 0.04883 127.95117 227 126 hstem
          0 115 216 118.3711 vstem
          72 416 rmoveto
          -97 callsubr
          74.5 -253.5 rmoveto
          -96 callsubr
          endchar
        </CharString>
</ttFont>
